<svg width="129" height="72" viewBox="0 0 129 72" fill="none" xmlns="http://www.w3.org/2000/svg">
<g clip-path="url(#clip0_90_2)">
<path d="M121.751 67.3367C122.547 67.3215 122.863 66.5038 122.773 65.9047C122.716 65.5288 122.854 65.1688 122.482 64.9642C121.471 64.4098 118.122 64.6816 116.609 64.7013C116.145 64.7076 115.395 64.9468 115.273 65.3575C115.067 66.0487 115.233 66.7268 115.174 67.4608L121.751 67.3367ZM124.366 64.9389V67.2755C123.944 68.2179 122.955 68.7713 121.773 68.785L115.176 68.8617L115.103 71.729C114.551 71.9228 113.991 71.9203 113.399 71.7351C113.48 69.4539 113.268 67.2771 113.485 65.0178C113.578 64.0473 114.852 63.3152 115.851 63.2407C117.58 63.1122 119.19 63.2181 120.924 63.1915C122.099 63.1737 123.996 63.8217 124.366 64.9389Z" fill="#B5B7B9"/>
<path d="M109.994 71.9839L109.802 71.9899H109.61H105.682C105.618 71.9899 105.553 71.9943 105.49 71.9899C105.388 71.9823 105.335 71.9918 105.299 71.981C104.313 71.6835 103.615 70.8452 103.609 69.874L103.572 63.6328C104.009 63.4584 104.479 63.4507 104.892 63.6623L105.039 69.435C105.053 70.0015 105.464 70.4335 106.076 70.5001C107.375 70.6412 110.284 70.9663 110.297 69.3655L110.346 63.6315C110.747 63.4501 111.15 63.4891 111.603 63.6084L111.614 69.8765C111.616 70.8537 110.937 71.7568 109.994 71.9839Z" fill="#B5B7B9"/>
<path d="M99.5154 70.643C100.513 70.4232 100.158 65.9858 100.089 65.2909C100.05 64.9033 99.4436 64.6324 99.0627 64.6296L94.086 64.5937C93.6575 64.5905 93.154 64.8589 93.1508 65.282L93.1184 69.7197C93.1159 70.0524 93.3398 70.6217 93.7442 70.623L99.5154 70.643ZM99.4842 71.9824L93.4631 71.9466C92.5784 71.9412 91.5689 71.2957 91.4847 70.4882C91.3059 68.778 91.432 67.1752 91.3551 65.4428C91.3094 64.4126 92.0952 63.3764 93.3678 63.3317C95.6346 63.2517 97.8966 63.2244 100.21 63.3459C101.107 63.3929 101.743 64.5373 101.736 65.2588C101.72 66.9437 101.852 68.5039 101.7 70.0927C101.586 71.2647 100.722 71.9897 99.4842 71.9824Z" fill="#B5B7B9"/>
<path d="M86.4237 71.984L84.878 71.9909C84.493 70.0197 84.7506 67.9057 84.7287 65.824C84.7166 64.6986 85.6744 63.8143 86.8122 63.6453C87.9085 63.4823 89.0183 63.3376 90.1152 63.5527C90.5682 63.6418 90.5459 64.6698 90.1772 64.8065C89.0981 65.2071 86.7442 64.6498 86.6353 65.6226C86.3929 67.7842 86.8189 69.9353 86.4237 71.984Z" fill="#B5B7B9"/>
<path d="M81.1538 71.9853L80.9623 71.99H74.6387C74.5332 71.99 74.4754 71.9999 74.4392 71.9894C73.4433 71.6982 72.829 70.9325 72.8226 69.9772L72.7925 65.4406C72.7861 64.5071 73.4796 63.6 74.638 63.5213C76.8766 63.3694 79.1335 63.4458 81.4381 63.4024C82.7659 63.3776 83.1808 65.0929 82.9867 66.0607C82.6944 66.2399 82.1385 66.1923 81.8625 66.0575C81.8009 65.5671 81.8962 65.1231 81.5363 64.7288L75.2089 64.7406C74.6482 64.7418 74.3204 65.3172 74.3185 65.7895L74.3048 69.8303C74.3029 70.3721 74.6908 70.7879 75.3115 70.7892L80.4855 70.7984C80.8841 70.799 81.4194 70.604 81.514 70.2497C81.6535 69.7295 81.5639 69.2093 81.5496 68.6898L76.7613 68.6514C76.5294 68.2134 76.5462 67.6872 76.7968 67.2069L83.0804 67.1651C83.0432 69.5585 83.8653 71.2513 81.1538 71.9853Z" fill="#B5B7B9"/>
<path d="M67.4448 65.608C67.0439 67.6383 67.5833 69.9211 67.2335 71.7277C66.8002 71.9466 66.1427 71.8521 65.6068 71.7255L65.5903 65.9252C65.5881 65.1763 65.9578 64.2943 66.6862 63.9149C67.8437 63.312 69.2595 63.259 70.5622 63.4515C70.9164 63.6396 70.9685 64.5337 70.6401 64.7504C70.0781 65.1205 67.6751 64.4414 67.4448 65.608Z" fill="#555658"/>
<path d="M61.9639 66.8474C62.2765 66.4849 62.2616 65.8137 62.0205 65.3944C61.8489 65.096 61.246 64.8121 60.7409 64.8276C58.9567 64.8828 57.1886 64.7699 55.4119 64.9964C54.6003 65.0998 54.458 66.2898 54.668 66.8224L61.9639 66.8474ZM62.8797 70.3891C63.2218 70.7297 63.1602 71.3876 62.9258 71.8227C60.3477 71.7365 57.8395 71.8874 55.3681 71.6689C53.9946 71.5471 53.1531 70.6079 53.0813 69.4559C52.9911 68.0023 52.7173 66.5312 53.0216 65.0906C53.2443 64.0363 54.8014 63.4749 55.8697 63.3296C57.4284 63.1174 58.7956 63.3194 60.3861 63.1802C61.6863 63.1767 63.2946 63.7394 63.7288 64.9875C64.1033 66.0634 63.7838 67.2842 63.7263 68.4631L54.743 68.5586C54.6423 69.5089 55.391 70.2381 56.4504 70.2597L62.8797 70.3891Z" fill="#555658"/>
<path d="M49.218 65.0395C48.7628 64.7157 48.1278 64.5774 47.5211 64.5755C46.0233 64.5714 44.6002 64.5796 43.1082 64.6494C42.6651 64.6703 41.9761 64.8562 41.8805 65.2651C41.7162 65.9676 41.8538 66.6318 41.8093 67.3718L48.3756 67.2804C49.65 67.2627 49.5579 65.2816 49.218 65.0395ZM48.7491 68.6925L41.8303 68.807L41.7172 71.6137C41.3875 71.9544 40.5774 71.8491 40.0457 71.6962C40.0606 69.4896 39.9405 67.3908 40.0854 65.1905C40.16 64.0534 41.41 63.289 42.6387 63.1878C44.4195 63.0413 46.1491 63.0721 47.9601 63.1698C49.1074 63.2316 50.5239 63.7683 50.92 64.762C51.223 65.5226 51.1227 66.503 50.9349 67.2557C50.7275 68.0861 49.6881 68.677 48.7491 68.6925Z" fill="#555658"/>
<path d="M31.8047 65.353L31.7691 71.7832C31.1774 71.931 30.5671 71.9659 29.9503 71.8111L29.909 65.4491C29.9019 64.3549 24.9412 64.2822 24.9366 65.7248L24.9173 71.7877C24.284 71.8739 23.7288 71.8825 23.0775 71.7829L23.1052 65.7206C23.115 63.5679 25.5151 63.1972 27.3096 63.1378C28.6406 63.0941 29.8812 63.1727 30.9629 64.0304C31.8219 63.2235 32.9543 63.2152 34.1144 63.1822C35.386 63.1461 36.683 63.1477 37.7258 63.9238C38.2633 64.3235 38.5717 65.0758 38.5727 65.7245L38.5819 71.7426C37.9209 71.7585 37.4059 71.7807 36.7487 71.7277L36.7357 65.7241C36.7347 65.2931 36.5842 64.98 36.1071 64.8351C35.0194 64.5043 32.5604 64.3628 31.8047 65.353Z" fill="#555658"/>
<path d="M19.6353 69.1535C19.6944 68.6327 19.3172 68.2603 18.7773 68.2622L13.4475 68.2806C12.7076 68.2832 12.0539 68.582 12.0646 69.2338C12.0738 69.7958 12.4099 70.4254 13.181 70.4676C14.923 70.5624 16.6835 70.5022 18.4458 70.4812C18.8044 70.4768 19.1618 70.2548 19.3512 70.1098C19.6494 69.8808 19.5908 69.5462 19.6353 69.1535ZM12.7489 67.0668C14.7163 66.9596 16.661 67.0608 18.6023 67.0639C19.0198 67.0646 19.3086 67.266 19.6335 67.4813C19.8384 66.46 19.6227 64.6781 18.2141 64.6784C16.7553 64.679 13.3351 64.478 12.428 65.0517C12.117 65.2484 12.1436 65.6033 12.1283 65.9643C11.601 65.9785 11.092 66.0312 10.5643 65.9716C10.2132 64.176 12.3491 63.2904 13.8817 63.2942C15.4545 63.2977 16.9265 63.2476 18.4738 63.3961C19.8914 63.5321 21.3009 64.5249 21.3026 65.8247L21.3095 71.2977C21.3101 71.7544 20.7256 71.965 20.3709 71.9682C19.8779 71.9726 19.6879 71.6253 19.6208 71.0823C18.1611 72.2394 16.215 71.8762 14.1883 71.8622C13.1774 71.8553 12.2036 71.7214 11.3925 71.2349C10.6704 70.8013 10.5659 70.2763 10.52 69.5459C10.4418 68.3041 11.1889 67.1515 12.7489 67.0668Z" fill="#555658"/>
<path d="M39.2622 43.4506H43.2012C45.1306 43.4506 46.5991 43.9121 47.6068 44.8347C48.6147 45.7574 49.1185 46.9779 49.1185 48.4969C49.1185 50.0153 48.6147 51.2361 47.6068 52.1588C46.5991 53.0814 45.1306 53.5426 43.2012 53.5426H39.2622V43.4506ZM46.2161 51.1279C46.9076 50.5174 47.2532 49.6404 47.2532 48.4969C47.2532 47.3528 46.9076 46.4762 46.2161 45.8656C45.5248 45.255 44.5147 44.9499 43.1853 44.9499H41.0951V52.0433H43.1853C44.5147 52.0433 45.5248 51.7382 46.2161 51.1279ZM51.297 50.4431C51.0451 49.8278 50.9193 49.1792 50.9193 48.4969C50.9193 47.8143 51.0451 47.1654 51.297 46.5507C51.5485 45.9354 51.9103 45.3803 52.3818 44.8855C52.8535 44.3901 53.4754 43.9961 54.247 43.703C55.0189 43.41 55.882 43.2634 56.8359 43.2634C57.7898 43.2634 58.6501 43.41 59.4166 43.703C60.1831 43.9961 60.8047 44.3901 61.2815 44.8855C61.7586 45.3803 62.1233 45.9354 62.3752 46.5507C62.6271 47.1654 62.7532 47.8143 62.7532 48.4969C62.7532 49.1792 62.6271 49.8278 62.3752 50.4431C62.1233 51.0578 61.7586 51.6129 61.2815 52.1083C60.8047 52.6031 60.1831 52.9971 59.4166 53.2901C58.6501 53.5832 57.7898 53.7298 56.8359 53.7298C55.882 53.7298 55.0189 53.5832 54.247 53.2901C53.4754 52.9971 52.8535 52.6031 52.3818 52.1083C51.9103 51.6129 51.5485 51.0578 51.297 50.4431ZM59.8349 51.1206C60.5369 50.4092 60.8879 49.5347 60.8879 48.4969C60.8879 47.4588 60.5369 46.584 59.8349 45.8726C59.1326 45.1614 58.1329 44.8056 56.8359 44.8056C55.5497 44.8056 54.5529 45.1614 53.8455 45.8726C53.1381 46.584 52.7842 47.4588 52.7842 48.4969C52.7842 49.5347 53.1381 50.4092 53.8455 51.1206C54.5529 51.8321 55.5497 52.1876 56.8359 52.1876C58.1329 52.1876 59.1326 51.8321 59.8349 51.1206ZM69.4901 43.4506H74.2489C75.4496 43.4506 76.393 43.6669 77.0792 44.0995C77.765 44.5318 78.1081 45.1662 78.1081 46.0026C78.1081 46.5792 77.9419 47.0572 77.6097 47.4369C77.2774 47.8162 76.8539 48.0786 76.3397 48.2229C76.9502 48.3764 77.4727 48.6577 77.907 49.0663C78.3409 49.4748 78.5582 50.0346 78.5582 50.7457C78.5582 51.284 78.4241 51.7477 78.156 52.1369C77.8882 52.5264 77.5293 52.8169 77.0792 53.0091C76.6287 53.2013 76.1758 53.338 75.7202 53.4202C75.2647 53.5017 74.7851 53.5426 74.2813 53.5426H69.4901V43.4506ZM76.6935 50.5722C76.6935 49.5442 75.9162 49.0301 74.3616 49.0301H71.3229V52.1007H74.1046C74.4798 52.1007 74.7959 52.0864 75.0532 52.0576C75.3105 52.0287 75.5757 51.9662 75.8492 51.8704C76.1224 51.7743 76.3314 51.618 76.4759 51.402C76.6211 51.1857 76.6935 50.9091 76.6935 50.5722ZM76.2428 46.2621C76.2428 45.3394 75.5138 44.8779 74.0564 44.8779H71.3229V47.6316L74.3133 47.6459C74.8816 47.6459 75.3451 47.5308 75.7044 47.2999C76.0633 47.0693 76.2428 46.7236 76.2428 46.2621ZM82.8837 53.5426H81.0505V43.4506H85.5523C86.1098 43.4506 86.6327 43.5035 87.1203 43.6092C87.6079 43.7151 88.0662 43.8857 88.4948 44.1211C88.9236 44.3564 89.2613 44.6857 89.5078 45.1085C89.7543 45.5313 89.8775 46.0312 89.8775 46.6081C89.8775 47.454 89.6256 48.1195 89.1215 48.6048C88.618 49.0904 87.9589 49.4193 87.1441 49.5921L90.746 53.5426H88.5434L85.1667 49.765H82.8837V53.5426ZM82.8837 44.9499V48.3091H85.6327C86.3188 48.3091 86.8868 48.1794 87.3372 47.92C87.7877 47.6602 88.0129 47.2326 88.0129 46.637C88.0129 46.041 87.7877 45.6106 87.3372 45.3464C86.8868 45.0821 86.3188 44.9499 85.6327 44.9499H82.8837ZM93.4629 53.5426H91.5173L96.2767 43.4506H98.2868L103.03 53.5426H101.101L100.103 51.3652H94.4603L93.4629 53.5426ZM97.0651 45.6134L95.0871 49.9236H99.4609L97.4828 45.6134C97.3971 45.4022 97.3275 45.2144 97.2738 45.0511C97.2204 45.2144 97.1506 45.4022 97.0651 45.6134ZM104.188 46.0169C104.188 45.1326 104.565 44.4529 105.321 43.9771C106.077 43.5013 107.017 43.2634 108.143 43.2634C109.504 43.2634 110.678 43.5181 111.664 44.0275V45.5985C110.71 45.0222 109.585 44.7434 108.288 44.7624C106.798 44.7624 106.053 45.1713 106.053 45.988C106.053 46.3823 106.272 46.7115 106.712 46.9757C107.151 47.2399 107.687 47.4585 108.32 47.6316C108.952 47.8048 109.585 48.0018 110.217 48.2229C110.849 48.4439 111.385 48.7779 111.825 49.2248C112.264 49.6718 112.484 50.2265 112.484 50.8894C112.484 51.8796 112.085 52.6031 111.286 53.0599C110.488 53.516 109.467 53.7393 108.223 53.7298C106.722 53.7298 105.393 53.4367 104.236 52.8505V51.2361C105.383 51.899 106.669 52.2308 108.095 52.2308C109.777 52.2308 110.619 51.8127 110.619 50.9763C110.619 50.6112 110.461 50.2991 110.145 50.0397C109.829 49.7799 109.432 49.5829 108.955 49.4485C108.478 49.3137 107.961 49.1525 107.403 48.9651C106.846 48.7779 106.328 48.581 105.851 48.3745C105.374 48.1677 104.978 47.8622 104.662 47.4585C104.345 47.055 104.188 46.5742 104.188 46.0169ZM114.8 43.4506H116.633V53.5426H114.8V43.4506ZM119.832 43.4506H121.665V52.0141H127.582V53.5426H119.832V43.4506Z" fill="#555658"/>
<path d="M118.742 34.155C122.071 31.8976 121.923 29.1551 121.941 25.3727C119.948 26.1305 117.952 26.5347 115.874 26.8636C114.459 27.0875 113.113 27.2576 111.767 27.6802C110.162 28.1836 109.059 29.5265 109 31.23C108.943 32.89 109.905 34.4338 111.513 35.0075C113.865 35.8462 116.564 35.4725 118.742 34.155ZM107.239 25.6979C108.627 24.6238 110.158 24.0204 111.83 23.781L116.198 23.1559C118.138 22.8783 120.006 22.5454 121.901 21.9139C122.084 19.3423 121.871 17.0004 119.154 16.0291C117.153 15.3143 114.912 15.3679 112.841 15.888C111.754 16.2619 110.887 16.8941 110.322 17.9195C109.848 18.6971 109.582 19.5432 109.335 20.4491L105.184 19.8542C105.527 18.116 106.141 16.4664 107.256 15.1244C108.398 13.7998 109.864 13.0737 111.501 12.5221C115.152 11.4891 121.379 11.3267 124.35 14.211C126.807 16.5955 126.15 20.6739 126.257 23.8735L126.376 33.519C126.425 35.2372 126.761 36.8034 127.564 38.3341L123.117 38.337C122.625 37.3119 122.43 36.2407 122.281 35.1208C120.912 36.2658 119.593 37.2709 117.994 37.9272C113.513 39.7656 106.409 39.3326 104.775 33.768C103.891 30.7549 104.805 27.5811 107.239 25.6979Z" fill="#24A3DD"/>
<path d="M97.1172 38.2323C91.2819 40.2816 87.8782 39.057 82.9428 35.5525L85.0584 32.5843C85.4748 33.113 85.9424 33.4343 86.4938 33.7683C88.9566 35.1404 94.2605 36.3813 96.433 34.1128C97.891 32.5903 97.5527 30.0827 95.919 28.8583C94.9695 28.1465 94.034 27.678 92.9292 27.2513C90.462 26.2984 88.0396 25.2084 85.9202 23.5337C83.4167 21.5556 83.5076 15.6963 86.8696 13.4388C89.5732 11.6235 92.9099 11.3022 95.9978 12.1114C97.6776 12.6537 99.1203 13.5423 100.56 14.6502L98.5384 17.4934C96.6611 15.8435 94.2478 15.0068 91.8454 15.176C89.7416 15.3486 88.1441 17.1226 88.3407 19.3198C88.477 20.8438 91.4814 22.4132 92.711 22.9655L97.5257 25.1284C99.3592 25.952 100.809 27.9879 101.254 30.0685C101.605 31.7129 101.168 33.4616 100.589 34.9422C99.9469 36.5855 98.6772 37.6846 97.1172 38.2323Z" fill="#24A3DD"/>
<path d="M70.4306 16.1013C67.9631 15.1202 65.1124 15.7721 63.2545 17.668C61.813 19.1388 61.5283 22.0145 61.5131 24.0229L61.5086 38.3424L57.2575 38.3354L57.2578 12.4172L61.076 12.4122L61.1109 16.0306C62.677 13.6092 65.0365 12.1929 67.7795 11.9168C69.8782 11.7055 71.9239 11.9996 73.7987 12.9708C76.7263 14.4872 77.5722 17.4817 77.6014 20.7199L77.6227 38.3405L73.3607 38.3402L73.3582 22.3382C73.3318 19.7898 73.0951 17.1608 70.4306 16.1013Z" fill="#24A3DD"/>
<path d="M49.0778 38.4864L44.8416 38.5026L44.8419 12.3413L49.1169 12.3401L49.0778 38.4864Z" fill="#24A3DD"/>
<path d="M49.9568 4.26488C49.9199 5.30298 49.3618 6.12279 48.6554 6.5972C47.8364 7.14732 46.8771 7.24663 45.9769 6.9264C44.7946 6.50595 44.0007 5.37291 44.0246 4.10292C44.0481 2.85133 44.8708 1.74907 46.0626 1.36494C46.9912 1.06586 47.966 1.208 48.7799 1.81128C49.4762 2.32765 49.9946 3.20654 49.9568 4.26488Z" fill="#24A3DD"/>
<path d="M21.7537 23.2857C21.7632 21.7141 21.6035 20.2821 21.0593 18.955C20.2618 16.7977 18.4482 15.5038 16.2874 15.3004C14.6459 15.1459 13.2099 15.5414 11.8822 16.5431C9.76156 18.1429 8.54853 20.593 8.48404 23.3281L14.01 22.9824C16.6281 22.8186 19.1513 22.8907 21.7537 23.2857ZM32.1395 0.0811846H32.5286C32.6566 0.0811846 32.79 0.0727689 32.9177 0.0811846L36.0571 0.287819L35.9831 34.2038C35.9815 34.907 36.5511 35.3694 37.1038 35.3974C37.4827 35.417 37.761 35.3863 38.1228 35.3434L38.6412 38.7744C36.2061 39.4598 33.3599 39.5362 32.2008 36.7203C31.8469 35.8049 31.6156 34.8502 31.6357 33.8419L31.7239 29.413C24.9699 24.7745 16.1149 24.3351 8.3411 25.7542C8.65729 30.0767 10.3359 33.9158 14.4613 35.418C17.4588 35.9715 20.4979 35.3133 22.9938 33.5149L24.4873 36.3892C20.594 39.2349 15.5928 39.9292 11.1559 38.3084C9.82814 37.7318 8.61066 37.0464 7.69438 35.8785C5.69141 33.3252 4.57993 30.2117 4.31072 26.8902L1.27689 28.0378C0.97783 28.151 0.701215 28.2107 0.411513 28.0241C0.221597 27.9017 0.0024566 27.649 0.00165187 27.3651L0 26.7893C0.0447682 26.0417 3.46197 25.1517 4.27174 24.7716C4.47536 20.666 5.19027 17.4154 8.20451 14.572C10.5564 12.3535 13.5049 11.4152 16.6619 11.7352C18.7888 11.9508 20.7553 12.6413 22.2397 14.3178C23.603 15.5392 24.4529 17.1645 24.9007 18.9962C25.3214 20.701 25.4457 22.4017 25.5645 24.2028C27.6591 24.9355 29.7142 25.7517 31.6442 26.818L31.7441 0.0811846H32.1395Z" fill="#24A3DD"/>
</g>
<defs>
<clipPath id="clip0_90_2">
<rect width="129" height="72" fill="white"/>
</clipPath>
</defs>
</svg>
