<svg width="1920" height="1073" viewBox="0 0 1920 1073" fill="none" xmlns="http://www.w3.org/2000/svg">
<path d="M1812.1 1003.5C1823.96 1003.28 1828.65 991.092 1827.31 982.163C1826.48 976.561 1828.53 971.196 1822.98 968.147C1807.94 959.885 1758.1 963.936 1735.57 964.229C1728.67 964.323 1717.51 967.887 1715.69 974.009C1712.63 984.309 1715.09 994.415 1714.21 1005.35L1812.1 1003.5ZM1851.02 967.769V1002.59C1844.75 1016.64 1830.03 1024.88 1812.43 1025.09L1714.25 1026.23L1713.16 1068.96C1704.95 1071.85 1696.61 1071.81 1687.79 1069.05C1689.01 1035.06 1685.86 1002.62 1689.08 968.946C1690.47 954.482 1709.42 943.572 1724.3 942.462C1750.02 940.547 1773.99 942.126 1799.8 941.729C1817.29 941.464 1845.52 951.121 1851.02 967.769Z" fill="black"/>
<path d="M1637.12 1072.76L1634.26 1072.85H1631.41H1572.94C1571.99 1072.85 1571.03 1072.92 1570.09 1072.85C1568.57 1072.74 1567.78 1072.88 1567.24 1072.72C1552.56 1068.28 1542.17 1055.79 1542.09 1041.32L1541.54 948.306C1548.05 945.706 1555.03 945.592 1561.19 948.745L1563.37 1034.77C1563.58 1043.22 1569.7 1049.65 1578.81 1050.65C1598.14 1052.75 1641.43 1057.6 1641.63 1033.74L1642.35 948.287C1648.33 945.583 1654.32 946.164 1661.07 947.942L1661.23 1041.35C1661.26 1055.92 1651.15 1069.37 1637.12 1072.76Z" fill="black"/>
<path d="M1481.16 1052.78C1496 1049.5 1490.72 983.372 1489.69 973.015C1489.12 967.239 1480.09 963.203 1474.42 963.16L1400.35 962.626C1393.97 962.579 1386.48 966.578 1386.43 972.883L1385.95 1039.02C1385.91 1043.98 1389.24 1052.46 1395.26 1052.48L1481.16 1052.78ZM1480.7 1072.74L1391.08 1072.2C1377.91 1072.12 1362.89 1062.5 1361.63 1050.47C1358.97 1024.98 1360.85 1001.1 1359.7 975.28C1359.02 959.927 1370.72 944.484 1389.66 943.818C1423.4 942.626 1457.07 942.22 1491.5 944.03C1504.84 944.73 1514.32 961.784 1514.21 972.538C1513.97 997.647 1515.94 1020.9 1513.67 1044.58C1511.98 1062.04 1499.12 1072.85 1480.7 1072.74Z" fill="black"/>
<path d="M1286.31 1072.76L1263.3 1072.86C1257.57 1043.49 1261.41 1011.98 1261.08 980.96C1260.9 964.189 1275.15 951.011 1292.09 948.492C1308.41 946.062 1324.92 943.906 1341.25 947.111C1347.99 948.44 1347.66 963.759 1342.17 965.797C1326.11 971.767 1291.08 963.462 1289.46 977.959C1285.85 1010.17 1292.19 1042.23 1286.31 1072.76Z" fill="black"/>
<path d="M1207.87 1072.78L1205.02 1072.85H1110.9C1109.33 1072.85 1108.47 1073 1107.93 1072.84C1093.11 1068.5 1083.97 1057.09 1083.87 1042.85L1083.42 975.246C1083.33 961.335 1093.65 947.816 1110.89 946.644C1144.21 944.38 1177.8 945.519 1212.1 944.871C1231.86 944.503 1238.04 970.066 1235.15 984.487C1230.8 987.158 1222.53 986.449 1218.42 984.44C1217.5 977.132 1218.92 970.515 1213.56 964.639L1119.39 964.814C1111.04 964.833 1106.16 973.408 1106.14 980.446L1105.93 1040.67C1105.9 1048.74 1111.68 1054.94 1120.92 1054.96L1197.92 1055.09C1203.86 1055.1 1211.82 1052.2 1213.23 1046.92C1215.31 1039.16 1213.97 1031.41 1213.76 1023.67L1142.49 1023.1C1139.04 1016.57 1139.29 1008.73 1143.02 1001.57L1236.55 1000.95C1235.99 1036.62 1248.23 1061.84 1207.87 1072.78Z" fill="black"/>
<path d="M1003.83 977.742C997.863 1008 1005.89 1042.02 1000.69 1068.94C994.236 1072.2 984.45 1070.8 976.474 1068.91L976.228 982.469C976.195 971.309 981.698 958.163 992.539 952.51C1009.77 943.524 1030.84 942.735 1050.23 945.604C1055.5 948.407 1056.28 961.732 1051.39 964.96C1043.02 970.477 1007.26 960.356 1003.83 977.742Z" fill="black"/>
<path d="M922.254 996.212C926.906 990.81 926.684 980.808 923.095 974.559C920.542 970.111 911.569 965.88 904.051 966.112C877.495 966.934 851.179 965.251 824.736 968.626C812.656 970.167 810.538 987.903 813.663 995.839L922.254 996.212ZM935.884 1048.99C940.976 1054.07 940.059 1063.87 936.57 1070.36C898.198 1069.07 860.867 1071.32 824.084 1068.07C803.64 1066.25 791.116 1052.25 790.047 1035.09C788.705 1013.42 784.629 991.5 789.159 970.03C792.473 954.318 815.649 945.952 831.549 943.787C854.749 940.624 875.098 943.635 898.77 941.56C918.121 941.508 942.059 949.894 948.522 968.494C954.096 984.528 949.34 1002.72 948.484 1020.29L814.779 1021.71C813.28 1035.88 824.424 1046.74 840.192 1047.06L935.884 1048.99Z" fill="black"/>
<path d="M732.547 969.27C725.772 964.444 716.321 962.383 707.291 962.354C684.998 962.293 663.818 962.416 641.611 963.456C635.015 963.768 624.76 966.538 623.337 972.631C620.893 983.101 622.94 992.999 622.278 1004.03L720.009 1002.67C738.977 1002.4 737.606 972.876 732.547 969.27ZM725.569 1023.71L622.59 1025.42L620.907 1067.24C616 1072.32 603.943 1070.75 596.029 1068.47C596.251 1035.59 594.464 1004.31 596.62 971.52C597.731 954.574 616.335 943.182 634.623 941.674C661.127 939.491 686.871 939.949 713.824 941.405C730.902 942.327 751.983 950.325 757.879 965.134C762.389 976.469 760.895 991.08 758.101 1002.3C755.014 1014.67 739.544 1023.48 725.569 1023.71Z" fill="black"/>
<path d="M473.373 973.942L472.843 1069.77C464.035 1071.97 454.953 1072.49 445.772 1070.19L445.158 975.374C445.052 959.066 371.218 957.984 371.149 979.482L370.862 1069.84C361.437 1071.12 353.174 1071.25 343.479 1069.76L343.892 979.42C344.038 947.339 379.76 941.813 406.469 940.929C426.278 940.277 444.744 941.449 460.844 954.231C473.628 942.205 490.483 942.083 507.749 941.591C526.675 941.052 545.979 941.076 561.501 952.642C569.501 958.598 574.091 969.81 574.105 979.477L574.243 1069.16C564.404 1069.4 556.74 1069.73 546.958 1068.94L546.764 979.472C546.75 973.048 544.509 968.383 537.408 966.223C521.219 961.293 484.621 959.184 473.373 973.942Z" fill="black"/>
<path d="M292.247 1030.58C293.126 1022.82 287.513 1017.27 279.477 1017.3L200.149 1017.57C189.137 1017.61 179.406 1022.06 179.566 1031.78C179.703 1040.15 184.705 1049.53 196.183 1050.16C222.109 1051.58 248.313 1050.68 274.542 1050.37C279.88 1050.3 285.2 1046.99 288.018 1044.83C292.457 1041.42 291.584 1036.43 292.247 1030.58ZM189.751 999.481C219.033 997.884 247.978 999.392 276.871 999.439C283.085 999.448 287.384 1002.45 292.22 1005.66C295.27 990.439 292.058 963.883 271.094 963.888C249.381 963.897 198.476 960.901 184.976 969.452C180.346 972.382 180.742 977.672 180.514 983.051C172.666 983.263 165.09 984.048 157.237 983.16C152.011 956.401 183.801 943.203 206.612 943.26C230.021 943.312 251.929 942.565 274.959 944.777C296.059 946.805 317.037 961.6 317.062 980.971L317.165 1062.53C317.173 1069.34 308.475 1072.48 303.196 1072.53C295.858 1072.59 293.029 1067.42 292.031 1059.32C270.304 1076.57 241.339 1071.15 211.175 1070.95C196.129 1070.84 181.635 1068.85 169.562 1061.6C158.815 1055.14 157.26 1047.31 156.576 1036.43C155.413 1017.92 166.533 1000.74 189.751 999.481Z" fill="black"/>
<path d="M584.368 647.534H642.994C671.711 647.534 693.568 654.412 708.565 668.162C723.567 681.913 731.065 700.102 731.065 722.739C731.065 745.366 723.567 763.56 708.565 777.31C693.568 791.061 671.711 797.934 642.994 797.934H584.368V647.534ZM687.867 761.948C698.159 752.849 703.303 739.779 703.303 722.739C703.303 705.689 698.159 692.624 687.867 683.525C677.579 674.425 662.544 669.878 642.758 669.878H611.648V775.59H642.758C662.544 775.59 677.579 771.043 687.867 761.948ZM763.489 751.743C759.74 742.573 757.868 732.906 757.868 722.739C757.868 712.567 759.74 702.895 763.489 693.735C767.234 684.564 772.619 676.292 779.635 668.919C786.656 661.535 795.913 655.664 807.397 651.297C818.886 646.929 831.732 644.745 845.93 644.745C860.128 644.745 872.931 646.929 884.339 651.297C895.748 655.664 905 661.535 912.097 668.919C919.198 676.292 924.626 684.564 928.375 693.735C932.124 702.895 934.001 712.567 934.001 722.739C934.001 732.906 932.124 742.573 928.375 751.743C924.626 760.904 919.198 769.176 912.097 776.559C905 783.933 895.748 789.804 884.339 794.171C872.931 798.539 860.128 800.723 845.93 800.723C831.732 800.723 818.886 798.539 807.397 794.171C795.913 789.804 786.656 783.933 779.635 776.559C772.619 769.176 767.234 760.904 763.489 751.743ZM890.566 761.839C901.015 751.237 906.239 738.205 906.239 722.739C906.239 707.268 901.015 694.231 890.566 683.629C880.112 673.031 865.234 667.727 845.93 667.727C826.786 667.727 811.95 673.031 801.421 683.629C790.892 694.231 785.625 707.268 785.625 722.739C785.625 738.205 790.892 751.237 801.421 761.839C811.95 772.442 826.786 777.741 845.93 777.741C865.234 777.741 880.112 772.442 890.566 761.839ZM1034.27 647.534H1105.1C1122.97 647.534 1137.01 650.758 1147.22 657.205C1157.43 663.648 1162.54 673.102 1162.54 685.567C1162.54 694.16 1160.07 701.283 1155.12 706.942C1150.17 712.595 1143.87 716.504 1136.22 718.655C1145.31 720.943 1153.08 725.135 1159.55 731.223C1166 737.312 1169.24 745.655 1169.24 756.252C1169.24 764.274 1167.24 771.184 1163.25 776.984C1159.27 782.789 1153.92 787.119 1147.22 789.983C1140.52 792.848 1133.78 794.885 1127 796.109C1120.22 797.324 1113.08 797.934 1105.58 797.934H1034.27V647.534ZM1141.49 753.667C1141.49 738.347 1129.92 730.685 1106.78 730.685H1061.55V776.445H1102.95C1108.54 776.445 1113.24 776.233 1117.07 775.803C1120.9 775.372 1124.85 774.441 1128.92 773.014C1132.98 771.582 1136.1 769.251 1138.25 766.032C1140.41 762.808 1141.49 758.687 1141.49 753.667ZM1134.78 689.433C1134.78 675.683 1123.93 668.805 1102.23 668.805H1061.55V709.844L1106.06 710.057C1114.52 710.057 1121.42 708.341 1126.76 704.9C1132.1 701.463 1134.78 696.311 1134.78 689.433ZM1233.62 797.934H1206.33V647.534H1273.34C1281.63 647.534 1289.42 648.324 1296.67 649.898C1303.93 651.476 1310.75 654.019 1317.13 657.527C1323.51 661.034 1328.54 665.941 1332.21 672.242C1335.88 678.542 1337.71 685.992 1337.71 694.59C1337.71 707.197 1333.96 717.114 1326.46 724.346C1318.97 731.583 1309.16 736.484 1297.03 739.061L1350.64 797.934H1317.85L1267.6 741.637H1233.62V797.934ZM1233.62 669.878V719.94H1274.53C1284.75 719.94 1293.2 718.007 1299.9 714.141C1306.61 710.269 1309.96 703.897 1309.96 695.02C1309.96 686.139 1306.61 679.724 1299.9 675.787C1293.2 671.849 1284.75 669.878 1274.53 669.878H1233.62ZM1391.08 797.934H1362.12L1432.96 647.534H1462.87L1533.47 797.934H1504.75L1489.91 765.484H1405.92L1391.08 797.934ZM1444.69 679.767L1415.25 744H1480.35L1450.91 679.767C1449.63 676.619 1448.6 673.82 1447.8 671.386C1447 673.82 1445.96 676.619 1444.69 679.767ZM1550.7 685.779C1550.7 672.601 1556.32 662.471 1567.57 655.381C1578.82 648.291 1592.82 644.745 1609.57 644.745C1629.83 644.745 1647.3 648.541 1661.98 656.132V679.545C1647.78 670.956 1631.03 666.801 1611.73 667.085C1589.55 667.085 1578.46 673.177 1578.46 685.349C1578.46 691.225 1581.73 696.131 1588.27 700.069C1594.81 704.006 1602.79 707.263 1612.2 709.844C1621.61 712.425 1631.03 715.36 1640.44 718.655C1649.85 721.949 1657.82 726.927 1664.37 733.587C1670.91 740.247 1674.19 748.514 1674.19 758.394C1674.19 773.151 1668.24 783.933 1656.35 790.74C1644.47 797.537 1629.27 800.864 1610.76 800.723C1588.43 800.723 1568.65 796.355 1551.41 787.62V763.56C1568.49 773.439 1587.63 778.383 1608.85 778.383C1633.9 778.383 1646.42 772.153 1646.42 759.689C1646.42 754.248 1644.07 749.597 1639.36 745.73C1634.66 741.859 1628.76 738.924 1621.66 736.919C1614.55 734.91 1606.86 732.509 1598.56 729.716C1590.26 726.927 1582.56 723.991 1575.46 720.914C1568.36 717.832 1562.46 713.28 1557.75 707.263C1553.05 701.25 1550.7 694.084 1550.7 685.779ZM1708.64 647.534H1735.93V797.934H1708.64V647.534ZM1783.55 647.534H1810.83V775.155H1898.89V797.934H1783.55V647.534Z" fill="black"/>
<path d="M1767.32 509.004C1816.87 475.363 1814.66 434.492 1814.94 378.124C1785.28 389.417 1755.56 395.441 1724.63 400.342C1703.58 403.679 1683.55 406.215 1663.5 412.511C1639.62 420.014 1623.21 440.027 1622.33 465.414C1621.48 490.153 1635.79 513.159 1659.73 521.71C1694.73 534.207 1734.91 528.639 1767.32 509.004ZM1596.11 382.97C1616.77 366.963 1639.56 357.971 1664.45 354.403L1729.47 345.087C1758.34 340.95 1786.13 335.989 1814.35 326.579C1817.06 288.255 1813.9 253.353 1773.45 238.879C1743.67 228.226 1710.31 229.025 1679.5 236.776C1663.32 242.348 1650.41 251.769 1642.01 267.05C1634.95 278.639 1630.99 291.249 1627.31 304.748L1565.53 295.882C1570.64 269.979 1579.77 245.396 1596.37 225.395C1613.36 205.655 1635.18 194.835 1659.55 186.615C1713.89 171.219 1806.57 168.8 1850.8 211.783C1887.36 247.319 1877.58 308.098 1879.17 355.781L1880.94 499.526C1881.68 525.132 1886.68 548.473 1898.63 571.285L1832.44 571.328C1825.12 556.05 1822.22 540.088 1820 523.397C1799.63 540.461 1779.99 555.441 1756.18 565.221C1689.49 592.617 1583.76 586.165 1559.45 503.237C1546.28 458.333 1559.89 411.035 1596.11 382.97Z" fill="black"/>
<path d="M1445.47 569.768C1358.61 600.308 1307.95 582.058 1234.5 529.83L1265.98 485.596C1272.18 493.476 1279.14 498.264 1287.35 503.242C1324.01 523.69 1402.95 542.182 1435.28 508.375C1456.98 485.686 1451.95 448.316 1427.63 430.069C1413.5 419.462 1399.58 412.479 1383.13 406.121C1346.41 391.919 1310.36 375.675 1278.81 350.717C1241.55 321.238 1242.9 233.918 1292.94 200.275C1333.18 173.223 1382.84 168.434 1428.8 180.493C1453.81 188.575 1475.28 201.817 1496.71 218.329L1466.62 260.701C1438.68 236.112 1402.76 223.643 1367 226.164C1335.69 228.737 1311.91 255.174 1314.84 287.918C1316.87 310.63 1361.58 334.018 1379.88 342.25L1451.55 374.484C1478.83 386.757 1500.42 417.098 1507.04 448.104C1512.27 472.61 1505.75 498.671 1497.14 520.736C1487.58 545.226 1468.68 561.604 1445.47 569.768Z" fill="black"/>
<path d="M1048.27 239.954C1011.54 225.333 969.116 235.048 941.462 263.302C920.007 285.221 915.771 328.077 915.544 358.008L915.478 571.408L852.204 571.304L852.209 185.051L909.038 184.976L909.558 238.9C932.867 202.815 967.986 181.709 1008.81 177.593C1040.05 174.444 1070.5 178.827 1098.4 193.3C1141.97 215.899 1154.56 260.526 1155 308.784L1155.31 571.38L1091.88 571.375L1091.84 332.902C1091.45 294.923 1087.93 255.743 1048.27 239.954Z" fill="black"/>
<path d="M730.46 573.554L667.409 573.795L667.414 183.92L731.042 183.902L730.46 573.554Z" fill="black"/>
<path d="M743.543 63.5585C742.995 79.0291 734.688 91.2466 724.173 98.3166C711.984 106.515 697.706 107.995 684.307 103.223C666.71 96.9567 654.895 80.0713 655.249 61.145C655.599 42.4928 667.845 26.066 685.584 20.3415C699.403 15.8843 713.913 18.0026 726.026 26.9931C736.39 34.6885 744.106 47.7863 743.543 63.5585Z" fill="black"/>
<path d="M323.775 347.021C323.918 323.6 321.541 302.259 313.44 282.483C301.57 250.332 274.578 231.049 242.416 228.019C217.986 225.716 196.613 231.61 176.851 246.538C145.288 270.38 127.234 306.892 126.274 347.654L208.522 342.502C247.488 340.061 285.043 341.135 323.775 347.021ZM478.355 1.20988H484.146C486.052 1.20988 488.037 1.08446 489.938 1.20988L536.664 4.28931L535.562 509.732C535.539 520.211 544.016 527.103 552.242 527.519C557.883 527.812 562.024 527.353 567.409 526.715L575.125 577.846C538.881 588.061 496.519 589.2 479.267 547.235C474 533.593 470.558 519.365 470.857 504.338L472.17 438.336C371.645 369.209 239.85 362.661 124.147 383.81C128.853 448.226 153.837 505.44 215.238 527.826C259.852 536.075 305.085 526.266 342.233 499.465L364.462 542.3C306.515 584.709 232.079 595.056 166.042 570.902C146.279 562.309 128.159 552.094 114.521 534.69C84.7093 496.638 68.1664 450.239 64.1595 400.739L19.0049 417.841C14.5537 419.527 10.4367 420.418 6.12485 417.637C3.29818 415.813 0.0365633 412.047 0.024586 407.816L0 399.235C0.666317 388.094 51.527 374.831 63.5794 369.166C66.61 307.981 77.2506 259.538 122.114 217.164C157.118 184.101 201.003 170.119 247.991 174.887C279.648 178.1 308.917 188.391 331.01 213.375C351.3 231.578 363.95 255.798 370.615 283.097C376.877 308.503 378.727 333.848 380.495 360.689C411.671 371.608 442.258 383.772 470.983 399.663L472.47 1.20988H478.355Z" fill="black"/>
</svg>
